name ./resultDataOpenSim/trcMotMarkerGrf/sub10/grf-15-07.mot
datacolumns 19
datarows 27
range 0.52000000 0.62400000
endheader

                time	     ground_force_vx	     ground_force_vy	     ground_force_vz	     ground_force_px	     ground_force_py	     ground_force_pz	   l_ground_force_vx	   l_ground_force_vy	   l_ground_force_vz	   l_ground_force_px	   l_ground_force_py	   l_ground_force_pz	     ground_torque_x	     ground_torque_y	     ground_torque_z	   l_ground_torque_x	   l_ground_torque_y	   l_ground_torque_z	
          0.52000000	         54.61904840	        548.36355280	        -30.46872105	         -0.79527685	          0.00000000	         -0.03802456	          0.00000000	          0.00000000	          0.00000000	          0.00000000	          0.00000000	          0.00000000	          0.00000000	          5.86745011	          0.00000000	          0.00000000	          0.00000000	          0.00000000	
          0.52400000	         57.34013110	        561.44057442	        -30.75374618	         -0.79449181	          0.00000000	         -0.03789580	          0.00000000	          0.00000000	          0.00000000	          0.00000000	          0.00000000	          0.00000000	          0.00000000	          6.13607330	          0.00000000	          0.00000000	          0.00000000	          0.00000000	
          0.52800000	         60.00291839	        574.06054651	        -31.62436110	         -0.79347181	          0.00000000	         -0.03776741	          0.00000000	          0.00000000	          0.00000000	          0.00000000	          0.00000000	          0.00000000	          0.00000000	          6.34806095	          0.00000000	          0.00000000	          0.00000000	          0.00000000	
          0.53200000	         62.69843888	        586.09599578	        -33.17615883	         -0.79221669	          0.00000000	         -0.03763465	          0.00000000	          0.00000000	          0.00000000	          0.00000000	          0.00000000	          0.00000000	          0.00000000	          6.49271578	          0.00000000	          0.00000000	          0.00000000	          0.00000000	
          0.53600000	         65.42368358	        597.48847294	        -35.35285955	         -0.79071644	          0.00000000	         -0.03749868	          0.00000000	          0.00000000	          0.00000000	          0.00000000	          0.00000000	          0.00000000	          0.00000000	          6.56805844	          0.00000000	          0.00000000	          0.00000000	          0.00000000	
          0.54000000	         68.06699419	        608.27146053	        -37.95480383	         -0.78895412	          0.00000000	         -0.03736598	          0.00000000	          0.00000000	          0.00000000	          0.00000000	          0.00000000	          0.00000000	          0.00000000	          6.58089898	          0.00000000	          0.00000000	          0.00000000	          0.00000000	
          0.54400000	         70.41961603	        618.55565697	        -40.68186280	         -0.78691697	          0.00000000	         -0.03724509	          0.00000000	          0.00000000	          0.00000000	          0.00000000	          0.00000000	          0.00000000	          0.00000000	          6.54519028	          0.00000000	          0.00000000	          0.00000000	          0.00000000	
          0.54800000	         72.24179691	        628.44474438	        -43.19145386	         -0.78461506	          0.00000000	         -0.03714502	          0.00000000	          0.00000000	          0.00000000	          0.00000000	          0.00000000	          0.00000000	          0.00000000	          6.47909220	          0.00000000	          0.00000000	          0.00000000	          0.00000000	
          0.55200000	         73.35153536	        637.91927599	        -45.15337734	         -0.78204708	          0.00000000	         -0.03708589	          0.00000000	          0.00000000	          0.00000000	          0.00000000	          0.00000000	          0.00000000	          0.00000000	          6.40147342	          0.00000000	          0.00000000	          0.00000000	          0.00000000	
          0.55600000	         73.66933595	        646.83551833	        -46.31456375	         -0.77916910	          0.00000000	         -0.03709791	          0.00000000	          0.00000000	          0.00000000	          0.00000000	          0.00000000	          0.00000000	          0.00000000	          6.32859339	          0.00000000	          0.00000000	          0.00000000	          0.00000000	
          0.56000000	         73.23340733	        655.10170821	        -46.56158792	         -0.77593679	          0.00000000	         -0.03720143	          0.00000000	          0.00000000	          0.00000000	          0.00000000	          0.00000000	          0.00000000	          0.00000000	          6.27146503	          0.00000000	          0.00000000	          0.00000000	          0.00000000	
          0.56400000	         72.22321692	        662.84673984	        -45.93654722	         -0.77239468	          0.00000000	         -0.03739626	          0.00000000	          0.00000000	          0.00000000	          0.00000000	          0.00000000	          0.00000000	          0.00000000	          6.23408566	          0.00000000	          0.00000000	          0.00000000	          0.00000000	
          0.56800000	         70.94368810	        670.36357091	        -44.60765845	         -0.76869603	          0.00000000	         -0.03766741	          0.00000000	          0.00000000	          0.00000000	          0.00000000	          0.00000000	          0.00000000	          0.00000000	          6.21263722	          0.00000000	          0.00000000	          0.00000000	          0.00000000	
          0.57200000	         69.72933174	        677.86783920	        -42.82956336	         -0.76499755	          0.00000000	         -0.03799188	          0.00000000	          0.00000000	          0.00000000	          0.00000000	          0.00000000	          0.00000000	          0.00000000	          6.19598077	          0.00000000	          0.00000000	          0.00000000	          0.00000000	
          0.57600000	         68.84501422	        685.32250156	        -40.89501260	         -0.76136337	          0.00000000	         -0.03834938	          0.00000000	          0.00000000	          0.00000000	          0.00000000	          0.00000000	          0.00000000	          0.00000000	          6.16785938	          0.00000000	          0.00000000	          0.00000000	          0.00000000	
          0.58000000	         68.46545858	        692.52183685	        -39.07669225	         -0.75776431	          0.00000000	         -0.03873483	          0.00000000	          0.00000000	          0.00000000	          0.00000000	          0.00000000	          0.00000000	          0.00000000	          6.11068343	          0.00000000	          0.00000000	          0.00000000	          0.00000000	
          0.58400000	         68.69667932	        699.37047379	        -37.57668394	         -0.75418055	          0.00000000	         -0.03914686	          0.00000000	          0.00000000	          0.00000000	          0.00000000	          0.00000000	          0.00000000	          0.00000000	          6.00990233	          0.00000000	          0.00000000	          0.00000000	          0.00000000	
          0.58800000	         69.58184334	        706.06303563	        -36.48732405	         -0.75070088	          0.00000000	         -0.03957207	          0.00000000	          0.00000000	          0.00000000	          0.00000000	          0.00000000	          0.00000000	          0.00000000	          5.85759695	          0.00000000	          0.00000000	          0.00000000	          0.00000000	
          0.59200000	         71.10224536	        712.94921519	        -35.78269080	         -0.74746891	          0.00000000	         -0.03999459	          0.00000000	          0.00000000	          0.00000000	          0.00000000	          0.00000000	          0.00000000	          0.00000000	          5.65438548	          0.00000000	          0.00000000	          0.00000000	          0.00000000	
          0.59600000	         73.19956713	        720.23529594	        -35.35110407	         -0.74456310	          0.00000000	         -0.04041007	          0.00000000	          0.00000000	          0.00000000	          0.00000000	          0.00000000	          0.00000000	          0.00000000	          5.40956797	          0.00000000	          0.00000000	          0.00000000	          0.00000000	
          0.60000000	         75.81868213	        727.86446029	        -35.02889980	         -0.74194090	          0.00000000	         -0.04083186	          0.00000000	          0.00000000	          0.00000000	          0.00000000	          0.00000000	          0.00000000	          0.00000000	          5.13996009	          0.00000000	          0.00000000	          0.00000000	          0.00000000	
          0.60400000	         78.95794921	        735.67617450	        -34.62012301	         -0.73957520	          0.00000000	         -0.04127954	          0.00000000	          0.00000000	          0.00000000	          0.00000000	          0.00000000	          0.00000000	          0.00000000	          4.86781801	          0.00000000	          0.00000000	          0.00000000	          0.00000000	
          0.60800000	         82.70036034	        743.60487087	        -33.91892075	         -0.73750015	          0.00000000	         -0.04176072	          0.00000000	          0.00000000	          0.00000000	          0.00000000	          0.00000000	          0.00000000	          0.00000000	          4.61799687	          0.00000000	          0.00000000	          0.00000000	          0.00000000	
          0.61200000	         87.18694037	        751.66699871	        -32.73080180	         -0.73581227	          0.00000000	         -0.04227434	          0.00000000	          0.00000000	          0.00000000	          0.00000000	          0.00000000	          0.00000000	          0.00000000	          4.41448738	          0.00000000	          0.00000000	          0.00000000	          0.00000000	
          0.61600000	         92.53896231	        759.77988676	        -30.89322607	         -0.73454515	          0.00000000	         -0.04282702	          0.00000000	          0.00000000	          0.00000000	          0.00000000	          0.00000000	          0.00000000	          0.00000000	          4.27674522	          0.00000000	          0.00000000	          0.00000000	          0.00000000	
          0.62000000	         98.78694008	        767.65285936	        -28.31490460	         -0.73363212	          0.00000000	         -0.04343446	          0.00000000	          0.00000000	          0.00000000	          0.00000000	          0.00000000	          0.00000000	          0.00000000	          4.21648820	          0.00000000	          0.00000000	          0.00000000	          0.00000000	
          0.62400000	        105.85661978	        774.86559958	        -25.02390517	         -0.73295557	          0.00000000	         -0.04410410	          0.00000000	          0.00000000	          0.00000000	          0.00000000	          0.00000000	          0.00000000	          0.00000000	          4.23570830	          0.00000000	          0.00000000	          0.00000000	          0.00000000	
